<?xml version="1.0" standalone="no"?>
<!DOCTYPE svg PUBLIC "-//W3C//DTD SVG 20010904//EN"
 "http://www.w3.org/TR/2001/REC-SVG-20010904/DTD/svg10.dtd">
<svg version="1.0" xmlns="http://www.w3.org/2000/svg"
 width="80.000000pt" height="80.000000pt" viewBox="0 0 80.000000 80.000000"
 preserveAspectRatio="xMidYMid meet">

<g transform="translate(0.000000,80.000000) scale(0.100000,-0.100000)"
fill="#ffffff" stroke="none">
<path d="M144 747 c-4 -10 7 -39 26 -74 l33 -57 -24 -16 c-50 -33 -83 -66
-115 -115 -29 -46 -64 -139 -64 -172 0 -11 76 -13 401 -13 l401 0 -7 43 c-11
67 -54 146 -109 202 -28 29 -59 57 -70 62 -18 10 -17 14 17 70 21 37 32 65 27
73 -8 13 -8 14 -63 -77 l-26 -41 -48 15 c-61 19 -184 19 -246 0 -54 -17 -44
-24 -100 73 -20 35 -27 40 -33 27z m96 -282 c17 -21 5 -45 -24 -45 -28 0 -37
17 -24 43 11 21 31 22 48 2z m369 1 c17 -20 2 -46 -25 -46 -29 0 -41 24 -24
45 16 19 34 19 49 1z"/>
</g>
</svg>
