<!DOCTYPE svg PUBLIC "-//W3C//DTD SVG 20010904//EN" "http://www.w3.org/TR/2001/REC-SVG-20010904/DTD/svg10.dtd">
<svg version="1.0" xmlns="http://www.w3.org/2000/svg" width="220px" height="200px" viewBox="0 0 2200 2000" preserveAspectRatio="xMidYMid meet">
<g id="layer101" fill="#ffffff" stroke="none">
 <path d="M235 1937 c-48 -21 -62 -31 -113 -80 -29 -27 -92 -138 -92 -161 0 -9 -4 -14 -10 -11 -7 4 -10 -227 -10 -684 0 -414 4 -691 9 -691 5 0 12 -14 16 -30 24 -110 142 -217 277 -250 65 -16 1590 -9 1639 8 86 29 202 133 223 200 4 12 12 22 17 22 5 0 9 289 9 739 0 582 -3 740 -12 744 -7 3 -22 22 -33 43 -27 52 -89 108 -158 144 l-59 30 -826 -1 c-823 -1 -827 -1 -877 -22z m1040 -387 c154 -13 263 -58 318 -132 51 -68 59 -217 15 -303 -26 -51 -89 -103 -136 -110 -56 -10 -62 -13 -62 -34 0 -14 9 -21 31 -26 77 -17 159 -150 144 -233 -18 -103 -46 -148 -117 -189 -71 -42 -103 -45 -471 -52 l-357 -6 0 548 0 547 263 0 c144 0 312 -5 372 -10z"/>
 <path d="M834 1426 c-2 -6 -3 -95 -2 -196 l3 -185 215 -3 c118 -1 226 2 240 7 14 5 37 12 53 15 41 9 94 66 107 117 14 52 9 105 -16 156 -22 45 -89 83 -146 83 -20 0 -40 5 -43 10 -10 16 -405 12 -411 -4z"/>
 <path d="M830 765 l0 -177 223 4 c235 4 262 9 310 59 47 49 51 153 9 214 -46 67 -59 70 -314 73 l-228 3 0 -176z"/>
 </g>

</svg>