<!DOCTYPE svg PUBLIC "-//W3C//DTD SVG 20010904//EN" "http://www.w3.org/TR/2001/REC-SVG-20010904/DTD/svg10.dtd">
<svg version="1.0" xmlns="http://www.w3.org/2000/svg" width="512px" height="512px" viewBox="4.5 1.5 51 49" preserveAspectRatio="xMidYMid meet">
<g id="layer101" fill="#ffffff" stroke="none">
 <path d="M1636 4874 c-489 -134 -892 -246 -895 -249 -5 -6 -420 -4529 -421 -4592 l0 -33 2243 0 2243 0 -210 2314 -211 2314 -901 246 c-495 135 -914 246 -930 245 -16 0 -429 -110 -918 -245z m1473 -879 c289 -86 526 -157 527 -158 3 -4 154 -1701 154 -1729 l0 -28 -606 -2 -607 -3 624 -234 c343 -129 627 -237 631 -240 4 -4 19 -132 33 -286 14 -154 27 -297 30 -317 l5 -38 -1340 0 c-737 0 -1340 3 -1340 8 0 4 13 142 30 307 16 165 30 306 30 312 0 10 138 13 637 15 l637 3 -606 234 c-333 128 -611 236 -616 240 -7 4 0 115 19 311 15 168 28 311 29 318 0 9 181 12 870 12 689 0 870 3 870 13 0 48 -53 623 -58 628 -4 3 -118 41 -254 83 l-248 77 -242 -77 c-134 -43 -248 -83 -254 -90 -5 -7 -21 -80 -34 -163 l-24 -151 -299 0 -299 0 5 43 c4 23 21 202 39 399 l32 356 410 123 c226 67 467 139 536 160 69 21 132 36 140 34 8 -2 251 -74 539 -160z"/>
 </g>

</svg>