<!DOCTYPE svg PUBLIC "-//W3C//DTD SVG 20010904//EN" "http://www.w3.org/TR/2001/REC-SVG-20010904/DTD/svg10.dtd">
<svg version="1.0" xmlns="http://www.w3.org/2000/svg" width="512px" height="512px" viewBox="0 0 5120 5120" preserveAspectRatio="xMidYMid meet">
<g id="layer101" fill="#ffffff" stroke="none">
 <path d="M1630 4873 l-895 -246 -208 -2291 c-114 -1260 -208 -2301 -207 -2313 l0 -23 2243 0 2243 0 -210 2314 -211 2313 -901 247 c-496 135 -914 246 -930 245 -16 0 -432 -111 -924 -246z m1472 -879 c288 -85 526 -158 529 -162 3 -4 38 -376 78 -827 41 -451 76 -844 79 -872 l5 -53 -916 0 -916 0 -5 -32 c-6 -35 -36 -400 -36 -430 0 -17 52 -18 960 -18 l960 0 0 -22 c1 -13 13 -157 28 -320 l28 -298 -1338 0 c-736 0 -1338 2 -1338 4 0 2 13 138 30 302 25 259 130 1418 130 1444 0 6 322 10 870 10 689 0 870 3 870 13 0 17 -53 621 -55 624 -1 2 -115 39 -253 83 l-253 81 -222 -71 c-122 -39 -236 -76 -253 -81 l-31 -9 -12 -128 c-6 -70 -14 -142 -17 -159 l-6 -33 -305 0 -305 0 6 38 c3 20 20 197 37 392 20 229 35 358 43 364 18 13 1027 314 1058 315 15 0 263 -69 550 -155z"/>
 </g>

</svg>