<!DOCTYPE svg PUBLIC "-//W3C//DTD SVG 20010904//EN" "http://www.w3.org/TR/2001/REC-SVG-20010904/DTD/svg10.dtd">
<svg version="1.0" xmlns="http://www.w3.org/2000/svg" width="512px" height="512px" viewBox="0 0 5120 5120" preserveAspectRatio="xMidYMid meet">
<g id="layer101" fill="#ffffff" stroke="none">
 <path d="M2460 5005 c-25 -7 -90 -27 -145 -43 -55 -17 -149 -44 -210 -60 -60 -17 -189 -53 -285 -80 -96 -28 -206 -58 -245 -67 -38 -10 -74 -21 -80 -25 -5 -4 -50 -18 -100 -30 -49 -12 -160 -42 -245 -67 -85 -25 -192 -55 -237 -67 -45 -12 -87 -26 -93 -32 -10 -10 -18 -84 -40 -339 -4 -55 -15 -174 -24 -265 -21 -215 -35 -374 -42 -480 -3 -47 -7 -92 -10 -101 -2 -8 -11 -101 -19 -205 -22 -263 -46 -542 -96 -1074 -5 -58 -14 -166 -19 -240 -5 -74 -14 -166 -19 -205 -6 -38 -13 -106 -15 -150 -3 -44 -14 -177 -25 -295 -11 -118 -25 -276 -31 -350 -6 -74 -15 -180 -20 -235 -6 -55 -13 -129 -16 -165 -3 -36 -9 -85 -14 -110 -9 -42 -13 -98 -11 -127 1 -17 4251 -19 4268 -2 6 6 9 27 7 47 -2 21 -10 114 -19 207 -8 94 -22 247 -31 340 -19 198 -29 313 -44 520 -6 83 -12 160 -15 173 -2 13 -13 130 -24 260 -12 130 -28 305 -36 387 -8 83 -17 188 -20 235 -3 47 -10 119 -15 160 -5 41 -12 113 -15 160 -3 47 -10 132 -15 190 -6 58 -19 206 -30 330 -11 124 -22 236 -25 250 -2 14 -7 77 -10 140 -3 63 -8 124 -11 135 -2 11 -8 76 -14 145 -5 69 -17 197 -26 285 -9 88 -17 191 -19 229 -6 111 -14 146 -38 156 -51 19 -159 51 -257 75 -58 14 -177 48 -265 75 -88 26 -187 54 -220 60 -33 7 -69 17 -80 23 -11 6 -51 18 -90 28 -126 32 -298 80 -395 110 -52 16 -104 29 -117 29 -12 0 -24 4 -27 9 -3 5 -18 11 -33 14 -16 3 -72 17 -126 31 -107 29 -149 31 -217 11z m-82 -2467 l-3 -1413 -195 2 -195 1 -5 1114 c-4 982 -7 1113 -20 1109 -23 -5 -408 -111 -465 -128 -27 -8 -66 -19 -85 -23 -19 -5 -77 -20 -128 -34 -51 -14 -100 -26 -108 -26 -12 0 -14 38 -14 234 0 135 4 237 9 241 10 6 174 54 256 75 28 7 151 42 275 77 124 35 284 80 355 98 72 19 166 45 210 59 44 14 88 25 98 25 16 1 17 -71 15 -1411z m542 1369 c74 -20 198 -52 275 -72 77 -20 183 -48 235 -61 52 -14 167 -44 255 -66 88 -22 167 -47 176 -54 16 -14 15 -2 59 -564 11 -135 24 -297 30 -360 20 -244 32 -431 26 -437 -4 -5 -322 31 -681 78 -44 5 -96 11 -115 12 l-35 2 0 -385 0 -385 435 -2 c239 -2 440 -5 446 -7 13 -5 19 -46 39 -290 15 -185 13 -204 -23 -191 -8 3 -304 5 -658 5 l-644 0 0 909 c0 501 3 912 8 914 4 3 68 -6 142 -19 74 -14 185 -34 245 -44 296 -52 391 -69 405 -74 8 -3 21 -2 29 3 11 7 12 45 6 215 -5 133 -11 209 -19 215 -11 9 -74 27 -356 100 -85 23 -204 55 -265 71 -60 17 -123 33 -140 36 -56 12 -55 8 -55 261 l0 235 23 -5 c12 -2 83 -21 157 -40z"/>
 </g>

</svg>