<?xml version="1.0" standalone="no"?>
<!DOCTYPE svg PUBLIC "-//W3C//DTD SVG 20010904//EN"
 "http://www.w3.org/TR/2001/REC-SVG-20010904/DTD/svg10.dtd">
<svg version="1.0" xmlns="http://www.w3.org/2000/svg"
 width="80.000000pt" height="107.000000pt" viewBox="0 0 80.000000 107.000000"
 preserveAspectRatio="xMidYMid meet">

<g transform="translate(0.000000,107.000000) scale(0.100000,-0.100000)"
fill="#ffffff" stroke="none">
<path d="M511 1034 c-2 -53 -46 -126 -106 -173 -76 -60 -143 -134 -151 -165
-7 -30 34 -101 87 -151 l31 -30 -31 59 c-51 98 -47 110 85 246 91 95 111 138
95 206 -9 37 -9 37 -10 8z"/>
<path d="M569 835 c-53 -19 -112 -59 -142 -95 -38 -44 -37 -100 3 -160 32 -48
36 -70 20 -101 -15 -28 2 -23 32 9 42 44 43 66 9 127 -17 30 -31 64 -31 76 0
22 65 92 125 136 35 25 33 26 -16 8z"/>
<path d="M670 490 c-12 -8 -10 -10 10 -10 31 0 44 -9 59 -37 15 -29 -3 -67
-53 -111 -20 -17 -36 -34 -36 -37 0 -16 101 49 124 80 24 31 27 40 17 61 -11
26 -66 64 -91 64 -8 0 -22 -5 -30 -10z"/>
<path d="M143 459 c-56 -21 -68 -43 -30 -52 100 -25 423 -12 477 19 24 15 23
15 -20 9 -86 -10 -327 -18 -363 -11 -46 9 -47 19 -4 40 47 23 5 20 -60 -5z"/>
<path d="M184 339 c-18 -20 -18 -21 0 -34 10 -8 38 -17 62 -21 63 -9 264 1
299 15 54 22 8 29 -151 24 -116 -5 -157 -3 -169 7 -8 7 -12 16 -9 21 11 18
-13 9 -32 -12z"/>
<path d="M210 224 c-51 -60 185 -88 330 -38 13 5 12 8 -3 19 -15 10 -48 12
-145 8 -110 -5 -129 -4 -141 11 -17 20 -25 20 -41 0z"/>
<path d="M43 140 c-114 -51 -3 -82 292 -81 193 0 331 20 377 52 16 12 27 24
24 27 -3 2 -11 0 -19 -6 -56 -47 -550 -63 -629 -21 -21 12 -15 27 16 39 20 8
20 9 1 9 -11 0 -39 -8 -62 -19z"/>
<path d="M710 65 c-76 -32 -242 -49 -400 -41 -102 5 -121 4 -105 -6 14 -9 73
-13 200 -13 201 0 305 18 353 61 33 29 23 28 -48 -1z"/>
</g>
</svg>
