<!DOCTYPE svg PUBLIC "-//W3C//DTD SVG 20010904//EN" "http://www.w3.org/TR/2001/REC-SVG-20010904/DTD/svg10.dtd">
<svg version="1.0" xmlns="http://www.w3.org/2000/svg" width="190px" height="200px" viewBox="0 0 1900 2000" preserveAspectRatio="xMidYMid meet">
<g id="layer101" fill="#ffffff" stroke="none">
 <path d="M1126 1981 c-15 -16 -168 -410 -211 -541 -10 -30 -19 -56 -21 -58 -1 -2 -95 33 -208 78 -151 60 -212 81 -231 76 -35 -9 -58 -51 -90 -164 -24 -89 -71 -243 -290 -966 -76 -251 -93 -350 -62 -361 23 -8 346 -45 396 -45 62 0 60 -3 136 195 86 223 246 636 327 842 l71 182 96 -35 c174 -63 456 -167 459 -170 2 -1 -42 -99 -97 -218 -56 -121 -98 -222 -95 -231 7 -17 44 -29 216 -71 137 -33 136 -33 185 64 15 31 65 127 111 214 59 111 82 166 80 185 -3 26 -14 32 -134 82 l-131 54 82 171 c45 94 99 204 119 243 20 40 36 83 36 96 0 27 -35 49 -357 225 -339 186 -352 192 -387 153z m399 -319 c121 -63 221 -116 223 -117 4 -3 -72 -171 -147 -326 l-51 -106 -272 110 c-150 60 -277 112 -281 117 -5 4 31 108 78 231 48 123 91 234 96 247 l9 22 62 -31 c35 -17 162 -83 283 -147z m-788 -364 l112 -41 -21 -51 c-11 -28 -36 -94 -55 -146 -20 -52 -83 -218 -139 -367 -57 -150 -104 -275 -104 -278 0 -6 -120 -319 -124 -322 -3 -4 -300 37 -304 42 -3 3 22 85 213 685 51 162 112 357 136 432 l42 137 66 -25 c36 -14 116 -43 178 -66z m963 -356 c52 -20 96 -37 98 -38 1 -1 -36 -78 -83 -171 l-85 -170 -107 29 c-60 17 -110 32 -112 34 -2 2 33 80 77 173 45 93 82 175 82 181 0 8 7 9 18 5 9 -4 60 -23 112 -43z"/>
 </g>

</svg>