<!DOCTYPE svg PUBLIC "-//W3C//DTD SVG 20010904//EN" "http://www.w3.org/TR/2001/REC-SVG-20010904/DTD/svg10.dtd">
<svg version="1.0" xmlns="http://www.w3.org/2000/svg" width="320px" height="170px" viewBox="0 0 3200 1700" preserveAspectRatio="xMidYMid meet">
<g id="layer101" fill="#ffffff" stroke="none">
 <path d="M820 1610 l0 -90 173 0 c211 0 210 1 215 -116 l4 -74 -131 0 c-150 0 -173 -7 -213 -67 -44 -64 -48 -98 -48 -445 l0 -328 55 0 55 0 0 313 c0 254 3 317 14 333 13 17 31 20 140 24 l126 5 0 -342 0 -343 60 0 61 0 -4 528 c-2 388 -6 537 -16 565 -6 21 -32 58 -57 82 l-45 45 -194 0 -195 0 0 -90z"/>
 <path d="M2436 1521 l-70 -6 -37 -90 c-36 -87 -39 -90 -66 -85 -15 3 -69 5 -120 5 -91 0 -92 0 -127 -34 -20 -19 -46 -60 -58 -90 -22 -54 -23 -70 -26 -446 -2 -256 1 -411 8 -453 15 -89 46 -149 91 -179 36 -24 43 -24 171 -21 122 3 136 5 171 28 84 56 97 131 97 585 0 356 -8 456 -40 517 l-19 37 30 73 c43 103 69 168 66 166 -1 -1 -33 -4 -71 -7z m-267 -456 c-21 -52 -39 -97 -39 -100 0 -3 31 -5 69 -5 l68 0 33 86 c29 75 35 83 42 63 5 -12 7 -188 6 -390 -4 -443 8 -409 -138 -409 -89 0 -99 2 -126 25 l-29 25 -3 302 c-5 378 0 440 36 473 21 19 38 25 73 25 l47 0 -39 -95z"/>
 <path d="M317 1337 c-15 -12 -32 -38 -37 -57 -10 -32 -95 -515 -107 -605 -3 -22 -9 -44 -13 -50 -6 -8 -24 -101 -43 -225 -3 -14 -5 192 -6 458 l-1 482 -55 0 -55 0 0 -557 c0 -346 4 -572 10 -595 13 -44 66 -98 97 -98 36 0 70 27 87 70 12 30 69 353 112 635 4 22 10 45 15 51 4 5 16 65 25 132 10 67 18 121 20 119 1 -1 26 -144 55 -317 29 -173 56 -317 60 -320 3 -3 10 -30 14 -60 13 -105 44 -231 67 -271 20 -36 25 -39 62 -38 53 1 92 44 106 119 6 31 10 276 10 591 l0 539 -60 0 -60 0 -2 -481 -3 -480 -64 383 c-35 211 -68 385 -73 386 -4 2 -8 16 -8 31 0 41 -27 125 -51 155 -26 33 -64 34 -102 3z"/>
 <path d="M3081 1334 c-11 -14 -23 -41 -27 -60 -3 -19 -10 -34 -15 -34 -12 0 -12 -145 0 -168 4 -9 18 -38 30 -64 16 -38 26 -48 44 -48 76 0 115 194 66 325 -29 77 -63 94 -98 49z m63 -49 c3 -8 1 -15 -4 -15 -5 0 -13 -19 -18 -42 l-10 -43 -1 42 c-1 23 -6 43 -13 45 -17 6 0 28 22 28 10 0 20 -7 24 -15z m24 -140 c0 -50 -1 -54 -7 -25 -4 20 -10 41 -14 47 -4 6 -4 26 0 44 5 28 7 30 14 14 4 -11 7 -47 7 -80z m-91 -27 c-2 -24 -4 -7 -4 37 0 44 2 63 4 43 2 -21 2 -57 0 -80z m53 -8 c0 -10 -4 -22 -10 -25 -6 -4 -10 7 -10 25 0 18 4 29 10 25 6 -3 10 -15 10 -25z m7 -87 c-14 -14 -18 -14 -33 -2 -16 13 -15 14 12 20 37 7 42 3 21 -18z"/>
 <path d="M1390 1245 l0 -95 165 0 164 0 17 -31 c12 -25 15 -56 12 -151 -4 -151 -9 -158 -130 -158 -91 0 -120 -11 -166 -66 -48 -56 -57 -99 -57 -274 0 -181 12 -242 58 -292 51 -56 60 -58 251 -58 l176 0 0 95 0 95 -168 0 c-117 0 -172 4 -180 12 -8 8 -12 54 -12 143 0 174 1 175 122 175 106 0 145 15 180 68 42 64 48 97 48 272 0 179 -10 234 -51 295 -42 61 -58 65 -253 65 l-176 0 0 -95z"/>
 <path d="M2635 1321 c-45 -27 -82 -74 -101 -128 -16 -43 -19 -100 -22 -561 l-4 -512 66 0 66 0 0 488 c0 372 3 493 13 512 13 25 13 25 180 28 l167 2 0 95 0 95 -167 0 c-146 0 -172 -2 -198 -19z"/>
 </g>

</svg>