<!DOCTYPE svg PUBLIC "-//W3C//DTD SVG 20010904//EN" "http://www.w3.org/TR/2001/REC-SVG-20010904/DTD/svg10.dtd">
<svg version="1.0" xmlns="http://www.w3.org/2000/svg" width="474px" height="464px" viewBox="0 0 4740 4640" preserveAspectRatio="xMidYMid meet">
<g id="layer101" fill="#ffffff" stroke="none">
 <path d="M30 4628 c0 -5 1053 -8 2340 -8 1287 0 2340 3 2340 8 0 4 -1053 7 -2340 7 -1287 0 -2340 -3 -2340 -7z"/>
 <path d="M5 2320 c0 -1262 1 -1779 2 -1147 2 631 2 1663 0 2295 -1 631 -2 114 -2 -1148z"/>
 <path d="M20 2320 l0 -2290 2350 0 2350 0 0 2290 0 2290 -2350 0 -2350 0 0 -2290z m247 -1027 c-1 -566 -2 -103 -2 1027 0 1130 1 1593 2 1028 2 -566 2 -1490 0 -2055z m3151 3070 c-577 -2 -1519 -2 -2095 0 -577 1 -105 2 1047 2 1152 0 1624 -1 1048 -2z m1059 -3070 c-1 -566 -2 -103 -2 1027 0 1130 1 1593 2 1028 2 -566 2 -1490 0 -2055z m-17 1027 l0 -2030 -2090 0 -2090 0 0 2030 0 2030 2090 0 2090 0 0 -2030z m-1042 -2047 c-577 -2 -1519 -2 -2095 0 -577 1 -105 2 1047 2 1152 0 1624 -1 1048 -2z"/>
 <path d="M2920 3319 c-76 -13 -202 -56 -242 -83 l-33 -22 0 -169 c0 -129 3 -170 13 -171 36 -4 37 -4 22 -15 -12 -8 -11 -10 5 -7 11 2 20 8 20 15 0 6 4 15 9 20 5 5 6 3 2 -4 -4 -7 -4 -13 1 -13 15 0 38 19 38 31 0 7 7 14 15 16 13 4 13 3 0 -7 -17 -13 -23 -15 100 27 64 23 93 27 197 27 89 1 114 3 90 10 -30 8 -184 2 -237 -9 l-25 -6 25 12 c14 7 76 12 142 13 109 1 118 -1 138 -21 22 -25 45 -31 35 -10 -4 6 7 -3 24 -21 26 -27 31 -40 31 -83 0 -47 -3 -54 -52 -102 l-51 -52 46 52 c43 47 47 57 47 101 0 36 -6 56 -21 73 l-21 24 16 -25 c9 -14 16 -46 16 -74 0 -46 -3 -53 -47 -95 -27 -25 -48 -49 -48 -52 0 -4 -4 -11 -9 -16 -5 -5 -6 -3 -2 5 4 6 5 12 2 12 -18 0 -240 -131 -238 -140 1 -6 -2 -9 -8 -5 -14 8 -63 -23 -55 -35 3 -5 0 -12 -6 -16 -8 -4 -9 -3 -5 4 20 32 -18 5 -76 -56 -59 -61 -118 -153 -118 -183 0 -6 16 19 35 57 22 44 55 89 92 124 l57 55 -56 -60 c-89 -97 -128 -192 -128 -315 0 -123 39 -225 124 -319 34 -39 35 -41 7 -16 -97 87 -147 218 -139 367 3 51 2 82 -3 68 -4 -14 -7 -59 -8 -101 -2 -128 38 -227 132 -327 44 -46 79 -70 62 -42 -10 16 1 11 16 -7 12 -14 12 -16 0 -8 -10 6 -12 4 -6 -5 12 -19 142 -76 202 -89 28 -6 96 -13 150 -15 l98 -5 -95 10 c-104 10 -204 28 -197 35 2 3 26 -1 53 -7 72 -17 285 -15 369 4 39 9 81 19 95 22 14 3 7 -2 -15 -10 -22 -9 -78 -23 -125 -30 -84 -15 -85 -15 -18 -10 78 6 196 40 218 62 8 9 11 13 5 10 -7 -3 -9 48 -7 147 2 89 -1 162 -7 179 l-11 27 -37 -16 c-74 -33 -170 -63 -233 -73 l-65 -10 61 4 c33 2 69 7 80 10 16 5 16 5 3 -4 -35 -23 -241 -33 -253 -12 -2 3 14 5 37 4 l42 -2 -40 8 c-22 4 -51 11 -64 15 -17 6 -22 5 -16 -4 6 -9 3 -9 -14 -1 -53 29 -67 122 -25 168 l26 28 -21 -29 c-12 -16 -21 -44 -21 -63 0 -37 24 -93 41 -93 6 0 1 12 -10 26 -32 41 -28 95 12 141 17 20 26 34 20 29 -19 -11 -16 -1 4 15 14 12 16 12 9 0 -6 -9 -4 -12 5 -9 8 3 14 10 14 16 0 5 4 14 9 19 5 5 6 2 1 -6 -5 -9 -3 -12 6 -9 8 3 14 10 14 16 0 5 4 14 9 19 5 5 6 3 2 -4 -9 -16 -1 -16 25 -2 11 5 17 14 14 19 -3 5 0 12 6 16 8 4 9 3 5 -4 -11 -18 -1 -15 65 18 37 19 57 35 53 42 -4 7 -3 8 4 4 14 -9 75 22 67 34 -3 5 0 12 6 16 8 5 9 3 4 -6 -5 -8 -3 -11 6 -8 8 3 14 10 14 15 0 6 4 15 9 20 5 5 6 3 2 -4 -11 -19 9 -16 25 4 12 15 12 16 -1 8 -13 -8 -13 -7 -1 8 15 18 26 23 16 7 -3 -6 -2 -10 3 -10 15 0 117 112 145 160 99 171 64 424 -81 573 -33 34 -62 51 -47 27 10 -16 -1 -11 -16 7 -12 15 -12 16 1 8 13 -8 13 -7 1 8 -16 20 -36 23 -25 5 4 -8 3 -10 -2 -5 -5 5 -9 14 -9 20 0 18 -131 68 -215 83 -84 15 -227 16 -310 3z m365 -24 c33 -9 64 -20 70 -26 5 -5 -9 -3 -31 5 -104 36 -282 46 -419 21 -43 -8 -81 -12 -83 -10 -3 3 29 10 128 29 51 10 276 -3 335 -19z m-625 -247 l-5 -173 -3 160 c-2 140 0 185 10 185 2 0 1 -78 -2 -172z m954 2 c32 -59 56 -158 56 -235 0 -122 -51 -244 -134 -323 l-40 -37 40 46 c111 124 148 272 109 437 -18 76 -40 121 -95 193 l-41 54 40 -45 c22 -24 51 -65 65 -90z"/>
 <path d="M1182 3302 c-10 -7 -12 -228 -10 -1096 3 -1063 3 -1088 22 -1102 16 -11 56 -14 190 -12 l171 2 -177 6 c-97 3 -180 9 -185 14 -4 5 1 6 12 2 11 -3 162 -6 335 -7 314 -1 391 4 495 36 57 17 66 18 45 6 -30 -18 -145 -43 -239 -51 l-96 -9 100 4 c58 3 131 13 173 25 87 24 195 77 187 90 -3 6 1 7 10 4 24 -9 174 147 213 223 65 123 94 315 73 468 -11 76 -49 211 -57 202 -2 -2 5 -30 16 -61 63 -183 45 -445 -42 -609 -18 -34 -62 -91 -97 -127 l-64 -65 59 65 c33 36 74 93 92 127 90 169 105 433 36 624 -14 38 -23 73 -20 78 9 13 -52 102 -112 164 -52 53 -84 74 -66 45 5 -9 2 -9 -9 1 -20 16 -23 26 -4 15 8 -5 8 -2 -2 9 -15 19 -36 23 -25 5 4 -7 3 -8 -5 -4 -6 4 -9 12 -5 17 17 27 -281 131 -366 127 -33 -1 -33 -1 -5 -5 53 -6 177 -35 172 -39 -2 -2 -33 3 -68 11 -35 9 -134 19 -219 23 l-155 7 120 5 120 6 -117 2 -118 2 0 363 c0 199 -4 367 -8 374 -4 6 -7 -158 -7 -365 l1 -377 -6 373 c-4 316 -7 374 -20 382 -9 6 -84 9 -177 8 -89 -2 -158 1 -154 5 5 5 83 7 174 5 91 -2 160 0 154 4 -16 10 -319 10 -335 0z m1216 -1120 c32 -58 20 -53 -14 6 -15 26 -48 70 -73 98 -41 45 -40 45 9 -6 30 -31 65 -75 78 -98z m-861 -570 c-1 -103 -2 -16 -2 193 0 209 1 293 2 187 2 -106 2 -277 0 -380z m306 547 c26 -6 46 -13 44 -16 -3 -2 -24 1 -48 7 -24 6 -100 15 -169 20 l-125 9 125 -4 c69 -2 147 -9 173 -16z m12 -23 c28 -7 64 -20 82 -29 38 -20 47 -21 37 -4 -5 8 -3 8 9 -2 9 -7 15 -17 12 -21 -2 -4 8 -18 22 -31 l27 -24 -17 28 c-24 37 -13 34 14 -5 13 -17 18 -28 11 -24 -16 10 -15 -5 3 -28 8 -10 22 -53 31 -94 28 -126 4 -271 -58 -346 -37 -45 -136 -94 -213 -105 -43 -6 -50 -9 -25 -10 19 0 51 3 69 9 22 6 31 6 25 0 -23 -23 -255 -38 -314 -20 -14 4 18 6 75 5 55 -1 80 -1 55 1 -25 2 -69 6 -97 10 l-53 5 0 356 0 356 128 -7 c70 -3 150 -12 177 -20z m242 -189 c26 -75 25 -233 -2 -306 -20 -53 -80 -132 -115 -151 -10 -6 5 14 34 42 69 70 91 136 90 268 0 68 -6 111 -20 152 -12 31 -17 55 -13 52 4 -2 16 -28 26 -57z"/>
 <path d="M1152 2213 c-1 -589 1 -1074 6 -1076 6 -5 6 750 -1 1763 -1 212 -3 -97 -5 -687z"/>
 <path d="M3590 1882 l5 -157 3 149 c1 82 -1 153 -5 157 -5 5 -6 -63 -3 -149z"/>
 <path d="M1663 1083 c15 -2 39 -2 55 0 15 2 2 4 -28 4 -30 0 -43 -2 -27 -4z"/>
 <path d="M4735 2320 c0 -1262 1 -1779 2 -1147 2 631 2 1663 0 2295 -1 631 -2 114 -2 -1148z"/>
 <path d="M30 13 c0 -5 1053 -8 2340 -8 1287 0 2340 3 2340 8 0 4 -1053 7 -2340 7 -1287 0 -2340 -3 -2340 -7z"/>
 </g>

</svg>