<!DOCTYPE svg PUBLIC "-//W3C//DTD SVG 20010904//EN" "http://www.w3.org/TR/2001/REC-SVG-20010904/DTD/svg10.dtd">
<svg version="1.0" xmlns="http://www.w3.org/2000/svg" width="400px" height="220px" viewBox="0 0 4000 2200" preserveAspectRatio="xMidYMid meet">
<g id="layer101" fill="#ffffff" stroke="none">
 <path d="M1640 2190 c-30 -4 -94 -13 -142 -19 -225 -29 -624 -154 -808 -253 -341 -183 -537 -390 -610 -642 -19 -67 -22 -94 -17 -180 5 -100 32 -206 63 -253 8 -13 12 -23 9 -23 -11 0 74 -123 125 -180 73 -83 211 -199 285 -241 102 -57 145 -86 137 -93 -4 -4 -2 -7 3 -5 6 1 51 -17 100 -41 82 -39 161 -65 315 -106 30 -8 62 -18 71 -23 9 -5 38 -13 65 -17 27 -4 66 -13 87 -20 44 -15 130 -31 207 -39 102 -9 142 -17 147 -31 7 -19 129 -20 137 -1 5 9 7 9 12 0 7 -15 344 -19 344 -4 0 4 44 11 97 15 273 19 669 106 923 203 122 47 360 179 450 251 69 55 192 182 227 232 91 133 133 261 133 400 0 168 -64 323 -195 472 -88 101 -140 145 -270 229 -135 89 -218 132 -317 168 -46 17 -114 42 -152 56 -122 46 -407 113 -565 134 -131 18 -203 21 -480 20 -179 -1 -351 -5 -381 -9z m-727 -452 c8 -13 20 -57 27 -98 6 -41 16 -96 22 -122 l10 -48 131 0 c228 0 320 -33 433 -152 35 -38 64 -65 64 -61 0 5 -7 46 -15 93 -22 125 -28 120 130 120 152 0 138 10 160 -110 8 -41 21 -113 30 -160 9 -47 22 -121 30 -165 8 -44 20 -104 26 -132 l10 -53 83 0 c105 0 144 8 157 31 10 19 2 73 -60 399 -20 107 -26 160 -20 172 9 16 25 18 138 18 91 0 131 -4 138 -12 5 -7 33 -141 62 -298 58 -310 60 -358 20 -429 -49 -88 -114 -112 -316 -119 -84 -2 -153 -8 -153 -13 0 -5 10 -63 21 -129 17 -96 19 -123 9 -135 -17 -20 -252 -22 -268 -2 -8 9 -99 467 -103 514 0 4 -10 -14 -23 -42 -45 -98 -117 -156 -225 -181 -77 -19 -574 -20 -588 -1 -6 6 -27 102 -47 212 -21 110 -44 232 -51 270 -8 39 -30 158 -50 265 -19 107 -42 232 -51 277 -23 114 -24 113 132 113 117 0 124 -1 137 -22z m1764 10 c4 -7 19 -71 33 -143 l25 -130 170 -6 c185 -6 231 -18 319 -78 171 -118 266 -386 203 -568 -24 -70 -93 -145 -165 -180 l-57 -28 -297 -3 c-344 -4 -308 -18 -333 124 -8 49 -19 109 -24 134 -6 25 -19 95 -30 155 -12 61 -37 196 -56 300 -20 105 -45 239 -56 298 -16 85 -18 111 -9 123 17 19 264 21 277 2z"/>
 <path d="M1020 1218 c0 -7 14 -93 32 -190 l32 -178 103 0 c114 0 164 14 183 51 20 36 6 152 -25 215 -43 87 -99 114 -242 114 -60 0 -83 -4 -83 -12z"/>
 <path d="M1993 813 c31 -2 83 -2 115 0 31 2 5 3 -58 3 -63 0 -89 -1 -57 -3z"/>
 <path d="M2780 1224 c0 -14 60 -337 66 -356 5 -16 18 -18 97 -18 108 0 161 12 182 43 19 27 19 95 1 164 -33 125 -91 165 -248 171 -54 3 -98 0 -98 -4z"/>
 </g>

</svg>